<?xml version="1.0" encoding="utf-8"?>
<!-- Generator: Adobe Illustrator 21.1.0, SVG Export Plug-In . SVG Version: 6.00 Build 0)  -->
<svg version="1.1" id="Layer_1" xmlns="http://www.w3.org/2000/svg" xmlns:xlink="http://www.w3.org/1999/xlink" x="0px" y="0px"
	 viewBox="0 0 600 600" style="enable-background:new 0 0 600 600;" xml:space="preserve">
<style type="text/css">
	.st0{fill:#FFA96A;}
	.st1{fill:#8A6100;}
	.st2{fill:#FFEA2A;}
	.st3{fill:#3EDF00;}
	.st4{fill:#E92700;}
	.st5{fill:#FFFFFF;}
</style>
<g>
	<path class="st0" d="M272.9,302.4c-1.2-26-45.7-46.9-100.4-46.9S73.2,276.4,72,302.4c0.1,3,0.5,6,1.3,8.8
		c7.7,30.2,49.2,53.3,99.1,53.3s91.4-23,99.1-53.3C272.3,308.4,272.8,305.4,272.9,302.4z"/>
	<path class="st1" d="M270.1,280.5c0.6,2.3,0.9,4.6,0.9,7c0,28.7-43.7,52-97.5,52S76,316.2,76,287.5c0-2.4,0.3-4.7,0.9-7
		c-0.6-2.8-0.9-5.6-0.9-8.5c0-0.5,0-1,0-1.4c1.2,26,44.3,46.9,97.5,46.9s96.3-20.9,97.5-46.9c0,0.5,0,1,0,1.4
		C271,274.8,270.7,277.7,270.1,280.5z"/>
	<path class="st2" d="M270.1,270.5c0.6,1.9,0.9,3.9,0.9,6c0,24.6-43.7,44.5-97.5,44.5S76,301,76,276.4c0-2,0.3-4,0.9-6
		c-0.6-2.4-0.9-4.8-0.9-7.3c0-0.4,0-0.8,0-1.2c1.2,22.2,44.3,40.1,97.5,40.1s96.3-17.9,97.5-40.1c0,0.4,0,0.8,0,1.2
		C271,265.7,270.7,268.1,270.1,270.5z"/>
	<path class="st3" d="M193.6,299.1c-3.3,0.3-6.7,0.5-10.2,0.6c-3.9,0.2-7.9,0.3-11.9,0.3h-0.9c0.1-0.1,0.2-0.2,0.3-0.2
		c3.1-2.4,7.3-3.8,11.8-3.8c0.8,0,1.6,0,2.5,0.1C188.4,296.4,191.3,297.5,193.6,299.1z"/>
	<path class="st3" d="M256.2,282.5c-3.4,2.1-7.5,4.1-12,5.9C246.3,285.6,250.7,283.4,256.2,282.5z"/>
	<path class="st3" d="M270.9,282.9c-2.5-0.6-5.4-1-8.4-1c-2.2,0-4.3,0.2-6.3,0.5c-3.4,2.1-7.5,4.1-12,5.9c2-2.8,6.5-5,12-5.9
		c8.1-5.1,12.8-10.9,12.8-17.2c0-1.6-0.3-3.1-0.9-4.7c0.6-1.9,0.9-3.8,0.9-5.7c0-0.3,0-0.6,0-1c-1.2,17.3-44.3,31.3-97.5,31.3
		S75.2,271.4,74,254c0,0.3,0,0.6,0,1c0,1.9,0.3,3.8,0.9,5.7c-0.6,1.5-0.9,3.1-0.9,4.7c0,4.1,2,8.1,5.8,11.8
		C71.4,278,65,282.7,65,288.5c0,6.3,7.8,11.5,17.5,11.5c9.5,0,17.2-4.9,17.5-11.1c3.8,1.5,8,2.8,12.5,4c-2.1,0.7-3.5,1.8-3.5,3.1
		c0,2.2,4.5,4,10,4c5,0,9.2-1.5,9.9-3.5c1.2,0.2,2.5,0.4,3.7,0.6c-2.3,1.3-3.6,2.9-3.6,4.6c0,4.6,9.5,8.3,21.3,8.3
		c6.1,0,11.6-1,15.5-2.6c-0.2,0.8-0.3,1.7-0.3,2.5c0,7.7,7.7,14,17.3,14c9.5,0,17.3-6.3,17.3-14c0-2.2-0.6-4.4-1.8-6.2
		c0.7,0.1,1.4,0.2,2.1,0.3h0c5.6,0.6,12.2,1,19.3,1c3.1,0,6-0.1,8.9-0.2h0c11.8-0.5,21.3-2,25.6-4c1.6-0.7,2.5-1.5,2.5-2.3
		c0-0.3-0.1-0.6-0.4-0.9c2.4,0.4,4.5,0.8,6.3,1.3c2.6,0.7,4.6,1.6,5.6,2.5c8.1-1.2,13.9-5,13.9-9.5c0-1.2-0.4-2.3-1.2-3.4
		C276.8,288.1,273.2,286,270.9,282.9z M183.5,299.7c-3.9,0.2-7.9,0.3-11.9,0.3h-0.9c0.1-0.1,0.2-0.2,0.3-0.2
		c3.1-2.4,7.3-3.8,11.8-3.8c0.8,0,1.6,0,2.5,0.1c3.2,0.4,6.1,1.4,8.4,3C190.3,299.3,186.9,299.6,183.5,299.7z"/>
	<path class="st3" d="M296,274.6c0,7.7-6.2,13.9-13.9,13.9c-0.4,0-0.8,0-1.3-0.1c-1.8-2.4-5.3-4.4-9.9-5.5c-1.7-2.3-2.8-5.2-2.8-8.4
		c0-7.7,6.2-13.9,13.9-13.9S296,266.9,296,274.6z"/>
	<path class="st3" d="M171,300h-0.4c0.1-0.1,0.2-0.2,0.3-0.2C171,299.8,171,299.9,171,300z"/>
	<path class="st3" d="M269,303c0,3.9-15.5,7-34.5,7c-17.4,0-31.8-2.6-34.2-6c5.6,0.6,12.2,1,19.3,1c3.1,0,6-0.1,8.9-0.2h0
		c11.8-0.5,21.3-2,25.6-4c1.6-0.7,2.5-1.5,2.5-2.3c0-0.3-0.1-0.6-0.4-0.9c2.4,0.4,4.5,0.8,6.3,1.3c2.6,0.7,4.6,1.6,5.6,2.5
		C268.7,301.8,269,302.4,269,303z"/>
	<path class="st3" d="M256.2,282.5c-3.4,2.1-7.5,4.1-12,5.9C246.3,285.6,250.7,283.4,256.2,282.5z"/>
	<path class="st3" d="M268.1,301.3c-1.8,0.3-3.6,0.4-5.6,0.4c-0.3,0-0.6,0-0.9,0c-2.7-0.1-5.3-0.4-7.5-1c1.6-0.7,2.5-1.5,2.5-2.3
		c0-0.3-0.1-0.6-0.4-0.9c2.4,0.4,4.5,0.8,6.3,1.3C265,299.6,267,300.4,268.1,301.3z"/>
	<path class="st3" d="M280.8,288.4c-4-0.4-7.6-2.4-9.9-5.5C275.5,284,279,286,280.8,288.4z"/>
	<path class="st3" d="M262.5,299.4c0,0.8-0.3,1.6-0.9,2.3c-2.5,3.1-10,5.4-18.9,5.4c-5.6,0-10.7-0.9-14.3-2.3
		c11.8-0.5,21.3-2,25.6-4c1.6-0.7,2.5-1.5,2.5-2.3c0-0.3-0.1-0.6-0.4-0.9c2.4,0.4,4.5,0.8,6.3,1.3
		C262.5,299,262.5,299.2,262.5,299.4z"/>
	<path class="st3" d="M193.6,299.1c-3.3,0.3-6.7,0.5-10.2,0.6c-3.9,0.2-7.9,0.3-11.9,0.3h-0.9c0.1-0.1,0.2-0.2,0.3-0.2
		c3.1-2.4,7.3-3.8,11.8-3.8c0.8,0,1.6,0,2.5,0.1C188.4,296.4,191.3,297.5,193.6,299.1z"/>
	<path class="st3" d="M280.8,288.4c-4-0.4-7.6-2.4-9.9-5.5C275.5,284,279,286,280.8,288.4z"/>
	<path class="st3" d="M193.6,299.1c-3.3,0.3-6.7,0.5-10.2,0.6c-0.5-0.4-0.7-0.8-0.7-1.3c0-0.8,0.9-1.6,2.5-2.3
		C188.4,296.4,191.3,297.5,193.6,299.1z"/>
	<circle class="st3" cx="234.5" cy="288.5" r="0"/>
	<path class="st1" d="M269.1,218c0.6,2.3,0.9,4.6,0.9,7c0,28.7-43.7,52-97.5,52S75,253.7,75,225c0-2.4,0.3-4.7,0.9-7
		c-0.6-2.8-0.9-5.6-0.9-8.5c0-0.5,0-1,0-1.4c1.2,26,44.3,46.9,97.5,46.9s96.3-20.9,97.5-46.9c0,0.5,0,1,0,1.4
		C270,212.4,269.7,215.2,269.1,218z"/>
	<path class="st4" d="M269.1,240c0.6,2.3,0.9,4.6,0.9,7c0,28.7-43.7,52-97.5,52S75,275.7,75,247c0-2.4,0.3-4.7,0.9-7
		c-0.6-2.8-0.9-5.6-0.9-8.5c0-0.5,0-1,0-1.4c1.2,26,44.3,46.9,97.5,46.9s96.3-20.9,97.5-46.9c0,0.5,0,1,0,1.4
		C270,234.4,269.7,237.2,269.1,240z"/>
	<path class="st2" d="M269.1,236.7c0.6,1.5,0.9,3.1,0.9,4.7c0,19.1-43.7,34.6-97.5,34.6S75,260.5,75,241.4c0-1.6,0.3-3.1,0.9-4.7
		c-0.6-1.9-0.9-3.8-0.9-5.7c0-0.3,0-0.6,0-0.9c1.2,17.3,44.3,31.3,97.5,31.3s96.3-13.9,97.5-31.3c0,0.3,0,0.6,0,0.9
		C270,233,269.7,234.8,269.1,236.7z"/>
	<path class="st0" d="M272.9,207.7c-1.2,26-45.7,46.9-100.4,46.9S73.2,233.7,72,207.7c0.1-3,0.5-6,1.3-8.8
		c7.7-30.2,49.2-53.3,99.1-53.3s91.4,23,99.1,53.3C272.3,201.8,272.8,204.7,272.9,207.7z"/>
	<ellipse class="st5" cx="198" cy="158.2" rx="4" ry="9"/>
	<ellipse transform="matrix(0.9262 -0.3771 0.3771 0.9262 -62.0695 112.0091)" class="st5" cx="255" cy="214.5" rx="4" ry="9"/>
	<ellipse transform="matrix(0.5 -0.866 0.866 0.5 -97.7615 289.6921)" class="st5" cx="202" cy="229.5" rx="9" ry="4"/>
	<ellipse transform="matrix(0.5306 -0.8476 0.8476 0.5306 -57.5727 270.049)" class="st5" cx="215" cy="187" rx="4" ry="9"/>
	<ellipse transform="matrix(0.9855 -0.1694 0.1694 0.9855 -29.6875 33.975)" class="st5" cx="184.3" cy="191" rx="4" ry="9"/>
	<ellipse transform="matrix(0.6096 -0.7927 0.7927 0.6096 -73.7248 192.0886)" class="st5" cx="158.2" cy="170.9" rx="4" ry="9"/>
	<ellipse transform="matrix(0.9373 -0.3484 0.3484 0.9373 -59.7079 85.2799)" class="st5" cx="207.2" cy="208.6" rx="9" ry="4"/>
	<ellipse transform="matrix(0.4665 -0.8845 0.8845 0.4665 -112.393 258.6187)" class="st5" cx="158.2" cy="222.5" rx="4" ry="9"/>
	<ellipse class="st5" cx="136.5" cy="170.8" rx="4" ry="9"/>
	<ellipse transform="matrix(0.5306 -0.8476 0.8476 0.5306 -97.0722 223.7645)" class="st5" cx="153.5" cy="199.5" rx="4" ry="9"/>
	<ellipse transform="matrix(0.9855 -0.1694 0.1694 0.9855 -32.8768 19.1223)" class="st5" cx="95.6" cy="202.2" rx="4" ry="9"/>
</g>
<g>
	<path class="st0" d="M539.5,311.9c-1.2-26-45.7-46.9-100.4-46.9s-99.2,20.9-100.4,46.9c0.1,3,0.5,6,1.3,8.8
		c7.7,30.2,49.2,53.3,99.1,53.3s91.4-23,99.1-53.3C539,317.8,539.4,314.9,539.5,311.9z"/>
	<path class="st1" d="M536.8,289.9c0.6,2.3,0.9,4.6,0.9,7c0,28.7-43.7,52-97.5,52s-97.5-23.3-97.5-52c0-2.4,0.3-4.7,0.9-7
		c-0.6-2.8-0.9-5.6-0.9-8.5c0-0.5,0-1,0-1.4c1.2,26,44.3,46.9,97.5,46.9s96.3-20.9,97.5-46.9c0,0.5,0,1,0,1.4
		C537.6,284.3,537.3,287.1,536.8,289.9z"/>
	<path class="st2" d="M536.8,279.9c0.6,1.9,0.9,3.9,0.9,6c0,24.6-43.7,44.5-97.5,44.5s-97.5-19.9-97.5-44.5c0-2,0.3-4,0.9-6
		c-0.6-2.4-0.9-4.8-0.9-7.3c0-0.4,0-0.8,0-1.2c1.2,22.2,44.3,40.1,97.5,40.1s96.3-17.9,97.5-40.1c0,0.4,0,0.8,0,1.2
		C537.6,275.1,537.3,277.6,536.8,279.9z"/>
	<path class="st3" d="M460.3,308.5c-3.3,0.3-6.7,0.5-10.2,0.6c-3.9,0.2-7.9,0.3-11.9,0.3h-0.9c0.1-0.1,0.2-0.2,0.3-0.2
		c3.1-2.4,7.3-3.8,11.8-3.8c0.8,0,1.6,0,2.5,0.1C455,305.9,457.9,307,460.3,308.5z"/>
	<path class="st3" d="M522.9,292c-3.4,2.1-7.5,4.1-12,5.9C512.9,295.1,517.3,292.9,522.9,292z"/>
	<path class="st3" d="M537.6,292.4c-2.5-0.6-5.4-1-8.4-1c-2.2,0-4.3,0.2-6.3,0.5c-3.4,2.1-7.5,4.1-12,5.9c2-2.8,6.5-5,12-5.9
		c8.1-5.1,12.8-10.9,12.8-17.2c0-1.6-0.3-3.1-0.9-4.7c0.6-1.9,0.9-3.8,0.9-5.7c0-0.3,0-0.6,0-1c-1.2,17.3-44.3,31.3-97.5,31.3
		s-96.3-13.9-97.5-31.3c0,0.3,0,0.6,0,1c0,1.9,0.3,3.8,0.9,5.7c-0.6,1.5-0.9,3.1-0.9,4.7c0,4.1,2,8.1,5.8,11.8
		c-8.4,0.8-14.8,5.6-14.8,11.4c0,6.3,7.8,11.5,17.5,11.5c9.5,0,17.2-4.9,17.5-11.1c3.8,1.5,8,2.8,12.5,4c-2.1,0.7-3.5,1.8-3.5,3.1
		c0,2.2,4.5,4,10,4c5,0,9.2-1.5,9.9-3.5c1.2,0.2,2.5,0.4,3.7,0.6c-2.3,1.3-3.6,2.9-3.6,4.6c0,4.6,9.5,8.3,21.3,8.3
		c6.1,0,11.6-1,15.5-2.6c-0.2,0.8-0.3,1.7-0.3,2.5c0,7.7,7.7,14,17.3,14c9.5,0,17.3-6.3,17.3-14c0-2.2-0.6-4.4-1.8-6.2
		c0.7,0.1,1.4,0.2,2.1,0.3h0c5.6,0.6,12.2,1,19.3,1c3.1,0,6-0.1,8.9-0.2h0c11.8-0.5,21.3-2,25.6-4c1.6-0.7,2.5-1.5,2.5-2.3
		c0-0.3-0.1-0.6-0.4-0.9c2.4,0.4,4.5,0.8,6.3,1.3c2.6,0.7,4.6,1.6,5.6,2.5c8.1-1.2,13.9-5,13.9-9.5c0-1.2-0.4-2.3-1.2-3.4
		C543.4,297.5,539.9,295.5,537.6,292.4z M450.1,309.2c-3.9,0.2-7.9,0.3-11.9,0.3h-0.9c0.1-0.1,0.2-0.2,0.3-0.2
		c3.1-2.4,7.3-3.8,11.8-3.8c0.8,0,1.6,0,2.5,0.1c3.2,0.4,6.1,1.4,8.4,3C456.9,308.8,453.5,309,450.1,309.2z"/>
	<path class="st3" d="M562.6,284c0,7.7-6.2,13.9-13.9,13.9c-0.4,0-0.8,0-1.3-0.1c-1.8-2.4-5.3-4.4-9.9-5.5c-1.7-2.3-2.8-5.2-2.8-8.4
		c0-7.7,6.2-13.9,13.9-13.9S562.6,276.4,562.6,284z"/>
	<path class="st3" d="M437.7,309.4h-0.4c0.1-0.1,0.2-0.2,0.3-0.2C437.6,309.3,437.6,309.3,437.7,309.4z"/>
	<path class="st3" d="M535.7,312.4c0,3.9-15.5,7-34.5,7c-17.4,0-31.8-2.6-34.2-6c5.6,0.6,12.2,1,19.3,1c3.1,0,6-0.1,8.9-0.2h0
		c11.8-0.5,21.3-2,25.6-4c1.6-0.7,2.5-1.5,2.5-2.3c0-0.3-0.1-0.6-0.4-0.9c2.4,0.4,4.5,0.8,6.3,1.3c2.6,0.7,4.6,1.6,5.6,2.5
		C535.3,311.3,535.7,311.9,535.7,312.4z"/>
	<path class="st3" d="M522.9,292c-3.4,2.1-7.5,4.1-12,5.9C512.9,295.1,517.3,292.9,522.9,292z"/>
	<path class="st3" d="M534.7,310.8c-1.8,0.3-3.6,0.4-5.6,0.4c-0.3,0-0.6,0-0.9,0c-2.7-0.1-5.3-0.4-7.5-1c1.6-0.7,2.5-1.5,2.5-2.3
		c0-0.3-0.1-0.6-0.4-0.9c2.4,0.4,4.5,0.8,6.3,1.3C531.7,309,533.6,309.9,534.7,310.8z"/>
	<path class="st3" d="M547.5,297.9c-4-0.4-7.6-2.4-9.9-5.5C542.1,293.5,545.7,295.5,547.5,297.9z"/>
	<path class="st3" d="M529.1,308.9c0,0.8-0.3,1.6-0.9,2.3c-2.5,3.1-10,5.4-18.9,5.4c-5.6,0-10.7-0.9-14.3-2.3
		c11.8-0.5,21.3-2,25.6-4c1.6-0.7,2.5-1.5,2.5-2.3c0-0.3-0.1-0.6-0.4-0.9c2.4,0.4,4.5,0.8,6.3,1.3
		C529.1,308.5,529.1,308.7,529.1,308.9z"/>
	<path class="st3" d="M460.3,308.5c-3.3,0.3-6.7,0.5-10.2,0.6c-3.9,0.2-7.9,0.3-11.9,0.3h-0.9c0.1-0.1,0.2-0.2,0.3-0.2
		c3.1-2.4,7.3-3.8,11.8-3.8c0.8,0,1.6,0,2.5,0.1C455,305.9,457.9,307,460.3,308.5z"/>
	<path class="st3" d="M547.5,297.9c-4-0.4-7.6-2.4-9.9-5.5C542.1,293.5,545.7,295.5,547.5,297.9z"/>
	<path class="st3" d="M460.3,308.5c-3.3,0.3-6.7,0.5-10.2,0.6c-0.5-0.4-0.7-0.8-0.7-1.3c0-0.8,0.9-1.6,2.5-2.3
		C455,305.9,457.9,307,460.3,308.5z"/>
	<circle class="st3" cx="501.2" cy="297.9" r="0"/>
	<path class="st1" d="M535.8,227.5c0.6,2.3,0.9,4.6,0.9,7c0,28.7-43.7,52-97.5,52s-97.5-23.3-97.5-52c0-2.4,0.3-4.7,0.9-7
		c-0.6-2.8-0.9-5.6-0.9-8.5c0-0.5,0-1,0-1.4c1.2,26,44.3,46.9,97.5,46.9s96.3-20.9,97.5-46.9c0,0.5,0,1,0,1.4
		C536.6,221.9,536.3,224.7,535.8,227.5z"/>
	<path class="st4" d="M535.8,249.5c0.6,2.3,0.9,4.6,0.9,7c0,28.7-43.7,52-97.5,52s-97.5-23.3-97.5-52c0-2.4,0.3-4.7,0.9-7
		c-0.6-2.8-0.9-5.6-0.9-8.5c0-0.5,0-1,0-1.4c1.2,26,44.3,46.9,97.5,46.9s96.3-20.9,97.5-46.9c0,0.5,0,1,0,1.4
		C536.6,243.9,536.3,246.7,535.8,249.5z"/>
	<path class="st2" d="M535.8,246.2c0.6,1.5,0.9,3.1,0.9,4.7c0,19.1-43.7,34.6-97.5,34.6s-97.5-15.5-97.5-34.6c0-1.6,0.3-3.1,0.9-4.7
		c-0.6-1.9-0.9-3.8-0.9-5.7c0-0.3,0-0.6,0-0.9c1.2,17.3,44.3,31.3,97.5,31.3s96.3-13.9,97.5-31.3c0,0.3,0,0.6,0,0.9
		C536.6,242.4,536.3,244.3,535.8,246.2z"/>
	<path class="st0" d="M539.5,217.2c-1.2,26-45.7,46.9-100.4,46.9s-99.2-20.9-100.4-46.9c0.1-3,0.5-6,1.3-8.8
		c7.7-30.2,49.2-53.3,99.1-53.3s91.4,23,99.1,53.3C539,211.3,539.4,214.2,539.5,217.2z"/>
	<ellipse class="st5" cx="464.7" cy="167.7" rx="4" ry="9"/>
	<ellipse transform="matrix(0.9262 -0.3771 0.3771 0.9262 -45.9512 213.2713)" class="st5" cx="521.6" cy="224" rx="4" ry="9"/>
	<ellipse transform="matrix(0.5 -0.866 0.866 0.5 27.3622 525.3528)" class="st5" cx="468.6" cy="239" rx="9" ry="4"/>
	<ellipse transform="matrix(0.5306 -0.8476 0.8476 0.5306 59.5626 500.5105)" class="st5" cx="481.7" cy="196.5" rx="4" ry="9"/>
	<ellipse transform="matrix(0.9855 -0.1694 0.1694 0.9855 -27.438 79.282)" class="st5" cx="450.9" cy="200.4" rx="4" ry="9"/>
	<ellipse transform="matrix(0.6096 -0.7927 0.7927 0.6096 22.8625 407.1566)" class="st5" cx="424.8" cy="180.4" rx="4" ry="9"/>
	<ellipse transform="matrix(0.9373 -0.3484 0.3484 0.9373 -46.2984 178.7804)" class="st5" cx="473.9" cy="218.1" rx="9" ry="4"/>
	<ellipse transform="matrix(0.4665 -0.8845 0.8845 0.4665 21.4802 499.5237)" class="st5" cx="424.9" cy="232" rx="4" ry="9"/>
	<ellipse class="st5" cx="403.1" cy="180.2" rx="4" ry="9"/>
	<ellipse transform="matrix(0.5306 -0.8476 0.8476 0.5306 20.0631 454.226)" class="st5" cx="420.1" cy="209" rx="4" ry="9"/>
	<ellipse transform="matrix(0.9855 -0.1694 0.1694 0.9855 -30.6273 64.4293)" class="st5" cx="362.3" cy="211.7" rx="4" ry="9"/>
</g>
</svg>
