<?xml version="1.0" encoding="utf-8"?>
<!-- Generator: Adobe Illustrator 21.1.0, SVG Export Plug-In . SVG Version: 6.00 Build 0)  -->
<svg version="1.1" id="Layer_1" xmlns="http://www.w3.org/2000/svg" xmlns:xlink="http://www.w3.org/1999/xlink" x="0px" y="0px"
	 viewBox="0 0 600 600" style="enable-background:new 0 0 600 600;" xml:space="preserve">
<style type="text/css">
	.st0{fill:#FFFFFF;stroke:#000000;stroke-miterlimit:10;}
	.st1{font-family:'MyriadPro-Regular';}
	.st2{font-size:38.5833px;}
</style>
<path d="M508,245.4c0,41.6-44.4,77.5-108.6,94.1l-194.9,97.3l65.1-91.1C189.2,333.8,130,293.4,130,245.4c0-57.4,84.6-104,189-104
	S508,187.9,508,245.4z"/>
<path class="st0" d="M522.2,252.6c0,41.6-44.4,77.5-108.6,94.1l-194.9,97.3l65.1-91.1c-80.4-11.9-139.6-52.4-139.6-100.4
	c0-57.4,84.6-104,189-104S522.2,195.2,522.2,252.6z"/>
<text transform="matrix(1 0 0 1 194 234.2225)"><tspan x="0" y="0" class="st1 st2">I will be aware</tspan><tspan x="0" y="46.3" class="st1 st2"> that i’m dreaming!</tspan></text>
</svg>
