<?xml version="1.0" encoding="utf-8"?>
<!-- Generator: Adobe Illustrator 21.1.0, SVG Export Plug-In . SVG Version: 6.00 Build 0)  -->
<svg version="1.1" id="Layer_1" xmlns="http://www.w3.org/2000/svg" xmlns:xlink="http://www.w3.org/1999/xlink" x="0px" y="0px"
	 viewBox="0 0 600 600" style="enable-background:new 0 0 600 600;" xml:space="preserve">
<style type="text/css">
	.st0{fill:#FFFFFF;}
</style>
<polygon class="st0" points="242,224.4 242,241 79.9,241 79.9,224.2 210.3,75.4 64,75.4 64,58.9 233.1,58.9 233.1,74.6 232.4,75.4 
	101.7,224.4 "/>
<polygon class="st0" points="233.1,74.6 233.1,75.4 232.4,75.4 "/>
<polygon class="st0" points="436.3,521.6 436.3,547 188,547 188,521.3 387.8,293.3 163.7,293.3 163.7,268 422.6,268 422.6,292.1 
	421.5,293.3 221.4,521.6 "/>
<polygon class="st0" points="396.3,331.6 396.3,332.4 395.6,332.4 "/>
<polygon class="st0" points="453.8,223.2 453.8,234 347.8,234 347.8,223 433.1,125.8 337.5,125.8 337.5,115 447.9,115 447.9,125.3 
	447.4,125.8 362.1,223.2 "/>
<polygon class="st0" points="447.9,125.3 447.9,125.8 447.4,125.8 "/>
</svg>
